<?xml version="1.0" encoding="UTF-8"?>
<!DOCTYPE svg PUBLIC "-//W3C//DTD SVG 1.1//EN" "http://www.w3.org/Graphics/SVG/1.1/DTD/svg11.dtd">
<svg xmlns="http://www.w3.org/2000/svg" version="1.1" width="1200px" height="1200px" style="shape-rendering:geometricPrecision; text-rendering:geometricPrecision; image-rendering:optimizeQuality; fill-rule:evenodd; clip-rule:evenodd" xmlns:xlink="http://www.w3.org/1999/xlink">
<g><path style="opacity:0.993" fill="#fcfdfe" d="M 569.5,-0.5 C 589.5,-0.5 609.5,-0.5 629.5,-0.5C 811.221,12.6014 959.055,89.6014 1073,230.5C 1155.68,338.942 1197.85,461.609 1199.5,598.5C 1199.5,598.833 1199.5,599.167 1199.5,599.5C 1194.18,799.645 1112.85,960.812 955.5,1083C 805.831,1188 641.164,1221.34 461.5,1183C 298.817,1141.81 173.317,1050.31 85,908.5C 32.9597,820.547 4.45975,725.547 -0.5,623.5C -0.5,607.167 -0.5,590.833 -0.5,574.5C 9.8189,399.37 80.8189,254.537 212.5,140C 315.903,54.4588 434.903,7.62543 569.5,-0.5 Z"/></g>
<g><path style="opacity:1" fill="#0a7bc0" d="M 542.5,16.5 C 547.844,16.334 553.177,16.5006 558.5,17C 509.73,34.5802 463.23,56.7469 419,83.5C 404.392,76.7883 390.892,68.4549 378.5,58.5C 416.62,41.9646 456.286,30.1313 497.5,23C 512.696,21.2168 527.696,19.0502 542.5,16.5 Z"/></g>
<g><path style="opacity:1" fill="#087bc0" d="M 639.5,17.5 C 703.745,19.8527 765.412,34.0194 824.5,60C 810.197,69.0694 795.364,77.2361 780,84.5C 735.47,57.4866 688.637,35.1532 639.5,17.5 Z"/></g>
<g><path style="opacity:1" fill="#0f7cc1" d="M 541.5,40.5 C 543.842,40.7748 543.842,41.6081 541.5,43C 516.535,61.3373 492.868,81.3373 470.5,103C 459.058,100.964 448.058,97.2972 437.5,92C 471.024,72.4045 505.691,55.2378 541.5,40.5 Z"/></g>
<g><path style="opacity:1" fill="#0d7cc1" d="M 654.5,41.5 C 691.029,55.105 726.363,71.9383 760.5,92C 750.268,97.077 739.601,100.744 728.5,103C 705.127,80.7807 680.461,60.2807 654.5,41.5 Z"/></g>
<g><path style="opacity:1" fill="#127dc1" d="M 556.5,51.5 C 557.525,51.8966 557.692,52.5632 557,53.5C 541.859,73.1431 527.693,93.4764 514.5,114.5C 512.926,115.631 511.259,115.798 509.5,115C 502.224,113.766 495.224,111.766 488.5,109C 510.478,88.8422 533.144,69.6755 556.5,51.5 Z"/></g>
<g><path style="opacity:1" fill="#0d7cc1" d="M 624.5,55.5 C 640.86,74.534 656.027,94.534 670,115.5C 670.688,116.332 670.521,116.998 669.5,117.5C 661.936,119.75 654.269,120.417 646.5,119.5C 639.755,97.9301 632.421,76.5967 624.5,55.5 Z"/></g>
<g><path style="opacity:1" fill="#c6e1f0" d="M 589.5,61.5 C 589.56,60.9569 589.893,60.6236 590.5,60.5C 591.828,81.6628 591.828,102.663 590.5,123.5C 590.831,102.66 590.497,81.9933 589.5,61.5 Z"/></g>
<g><path style="opacity:1" fill="#0f7cc1" d="M 607.5,58.5 C 615.8,79.397 623.133,100.73 629.5,122.5C 622.201,123.35 614.868,123.683 607.5,123.5C 607.5,101.833 607.5,80.1667 607.5,58.5 Z"/></g>
<g><path style="opacity:1" fill="#157ec2" d="M 647.5,56.5 C 669.211,73.0352 690.211,90.5352 710.5,109C 703.601,110.6 696.768,112.433 690,114.5C 676.003,95.0087 661.836,75.6753 647.5,56.5 Z"/></g>
<g><path style="opacity:1" fill="#147dc1" d="M 589.5,61.5 C 590.497,81.9933 590.831,102.66 590.5,123.5C 583.833,123.5 577.167,123.5 570.5,123.5C 576.027,102.587 582.36,81.9204 589.5,61.5 Z"/></g>
<g><path style="opacity:1" fill="#0e7cc1" d="M 571.5,60.5 C 572.097,60.7352 572.43,61.2352 572.5,62C 565.459,81.2904 559.125,100.79 553.5,120.5C 547.971,120.652 542.471,120.318 537,119.5C 535.027,119.691 533.527,119.024 532.5,117.5C 545.135,98.2077 558.135,79.2077 571.5,60.5 Z"/></g>
<g><path style="opacity:1" fill="#047ac0" d="M 358.5,65.5 C 372.458,75.9322 387.125,85.4322 402.5,94C 370.036,114.907 339.37,138.24 310.5,164C 308.402,163.968 306.402,163.301 304.5,162C 288.147,151.317 272.647,139.484 258,126.5C 257.493,125.004 257.993,123.837 259.5,123C 290.989,101.255 323.989,82.0878 358.5,65.5 Z"/></g>
<g><path style="opacity:1" fill="#047ac0" d="M 842.5,67.5 C 878.241,83.8615 911.908,103.528 943.5,126.5C 944.521,127.002 944.688,127.668 944,128.5C 928.675,141.493 912.509,153.326 895.5,164C 893.598,165.301 891.598,165.968 889.5,166C 860.638,139.913 829.972,116.247 797.5,95C 813.231,86.8118 828.231,77.6452 842.5,67.5 Z"/></g>
<g><path style="opacity:1" fill="#057bc0" d="M 418.5,102.5 C 430.6,107.813 442.933,112.647 455.5,117C 428.978,143.178 404.312,170.845 381.5,200C 361.591,193.382 342.591,184.549 324.5,173.5C 354.175,147.472 385.508,123.806 418.5,102.5 Z"/></g>
<g><path style="opacity:1" fill="#057bc0" d="M 776.5,103.5 C 779.745,103.88 782.745,105.047 785.5,107C 817.33,126.993 846.996,149.826 874.5,175.5C 856.364,186.241 837.364,194.741 817.5,201C 794.505,171.829 769.839,143.996 743.5,117.5C 754.495,112.835 765.495,108.168 776.5,103.5 Z"/></g>
<g><path style="opacity:1" fill="#057bc0" d="M 472.5,123.5 C 483.238,125.685 493.905,128.185 504.5,131C 485.94,160.609 468.774,191.109 453,222.5C 448.507,223.079 444.007,222.579 439.5,221C 425.711,217.07 412.044,212.737 398.5,208C 397.549,207.282 397.383,206.449 398,205.5C 421.25,176.749 446.084,149.415 472.5,123.5 Z"/></g>
<g><path style="opacity:1" fill="#067bc0" d="M 722.5,122.5 C 723.552,122.351 724.552,122.517 725.5,123C 752.59,149.751 777.923,177.918 801.5,207.5C 785.91,213.696 769.91,218.696 753.5,222.5C 752.558,222.392 751.725,222.059 751,221.5C 734.804,189.759 717.638,158.759 699.5,128.5C 707.37,126.95 715.037,124.95 722.5,122.5 Z"/></g>
<g><path style="opacity:1" fill="#077bc0" d="M 677.5,132.5 C 679.144,132.286 680.644,132.62 682,133.5C 701.825,163.478 719.325,194.811 734.5,227.5C 717.021,230.552 699.521,233.552 682,236.5C 680.833,236.167 679.667,235.833 678.5,235.5C 670.781,203.402 662.114,171.569 652.5,140C 652.585,138.893 652.919,137.893 653.5,137C 661.695,135.804 669.695,134.304 677.5,132.5 Z"/></g>
<g><path style="opacity:1" fill="#077bc0" d="M 521.5,134.5 C 530.223,135.062 538.89,136.062 547.5,137.5C 538.272,169.975 529.605,202.642 521.5,235.5C 520.667,235.833 519.833,236.167 519,236.5C 502.358,234.643 485.858,231.976 469.5,228.5C 484.772,195.95 502.105,164.616 521.5,134.5 Z"/></g>
<g><path style="opacity:1" fill="#037ac0" d="M 242.5,135.5 C 259.393,150.614 277.393,164.281 296.5,176.5C 263.682,207.961 235.016,242.628 210.5,280.5C 208.534,281.372 206.534,281.205 204.5,280C 180.262,269.885 157.262,257.718 135.5,243.5C 166.51,202.823 202.177,166.823 242.5,135.5 Z"/></g>
<g><path style="opacity:1" fill="#037ac0" d="M 956.5,138.5 C 958.308,138.491 959.975,138.991 961.5,140C 999.574,170.74 1033.57,205.407 1063.5,244C 1040.38,257.896 1016.38,270.229 991.5,281C 990.167,281.667 988.833,281.667 987.5,281C 963.092,244.072 935.092,209.905 903.5,178.5C 922.49,166.847 940.156,153.514 956.5,138.5 Z"/></g>
<g><path style="opacity:1" fill="#077bc0" d="M 564.5,139.5 C 573.167,139.5 581.833,139.5 590.5,139.5C 590.5,173.5 590.5,207.5 590.5,241.5C 573.096,241.473 555.763,240.473 538.5,238.5C 546.068,205.23 554.734,172.23 564.5,139.5 Z"/></g>
<g><path style="opacity:1" fill="#067bc0" d="M 627.5,138.5 C 630.167,138.5 632.833,138.5 635.5,138.5C 640.891,159.623 646.725,180.623 653,201.5C 656.16,213.807 658.993,226.141 661.5,238.5C 643.536,240.103 625.536,241.103 607.5,241.5C 607.5,207.5 607.5,173.5 607.5,139.5C 614.354,139.824 621.021,139.491 627.5,138.5 Z"/></g>
<g><path style="opacity:1" fill="#047ac0" d="M 310.5,185.5 C 330.047,196.106 350.047,205.94 370.5,215C 346.446,247.597 324.779,281.764 305.5,317.5C 278.769,309.09 252.436,299.59 226.5,289C 225.549,288.282 225.383,287.449 226,286.5C 250.614,250.036 278.781,216.369 310.5,185.5 Z"/></g>
<g><path style="opacity:1" fill="#037ac0" d="M 886.5,187.5 C 902.475,201.308 917.308,216.308 931,232.5C 945.797,250.462 959.631,269.129 972.5,288.5C 945.823,300.001 918.656,309.335 891,316.5C 873.297,280.901 852.464,247.401 828.5,216C 848.571,207.797 867.904,198.297 886.5,187.5 Z"/></g>
<g><path style="opacity:1" fill="#047ac0" d="M 385.5,221.5 C 403.561,227.767 421.894,233.267 440.5,238C 442.002,238.583 443.335,239.416 444.5,240.5C 428.813,272.728 414.98,305.728 403,339.5C 402.107,340.081 401.107,340.415 400,340.5C 374.918,335.688 350.084,329.854 325.5,323C 324.572,322.612 323.905,321.945 323.5,321C 341.604,286.099 362.271,252.933 385.5,221.5 Z"/></g>
<g><path style="opacity:1" fill="#037ac0" d="M 808.5,222.5 C 810.199,222.34 811.866,222.506 813.5,223C 836.669,254.317 857.336,287.317 875.5,322C 851.058,328.777 826.391,334.611 801.5,339.5C 800.833,339.167 800.167,338.833 799.5,338.5C 787.532,304.24 774.199,270.574 759.5,237.5C 776.355,233.879 792.689,228.879 808.5,222.5 Z"/></g>
<g><path style="opacity:1" fill="#057ac0" d="M 460.5,243.5 C 473.823,245.997 487.156,248.497 500.5,251C 506.135,251.904 511.802,252.404 517.5,252.5C 509.223,286.219 502.223,320.219 496.5,354.5C 470.79,351.526 445.123,348.193 419.5,344.5C 423.764,329.876 428.931,315.543 435,301.5C 443.237,282.028 451.737,262.694 460.5,243.5 Z"/></g>
<g><path style="opacity:1" fill="#047ac0" d="M 738.5,242.5 C 740.167,242.5 741.833,242.5 743.5,242.5C 757.698,273.904 770.531,305.904 782,338.5C 782.494,340.134 782.66,341.801 782.5,343.5C 756.016,348.263 729.349,351.597 702.5,353.5C 696.858,319.626 690.192,285.959 682.5,252.5C 701.549,250.545 720.215,247.212 738.5,242.5 Z"/></g>
<g><path style="opacity:1" fill="#067ac0" d="M 533.5,255.5 C 552.475,256.797 571.475,257.464 590.5,257.5C 590.5,291.5 590.5,325.5 590.5,359.5C 564.818,358.899 539.152,357.899 513.5,356.5C 518.919,322.579 525.586,288.912 533.5,255.5 Z"/></g>
<g><path style="opacity:1" fill="#057ac0" d="M 650.5,255.5 C 655.833,255.5 661.167,255.5 666.5,255.5C 674.377,288.55 680.71,321.884 685.5,355.5C 659.567,357.893 633.567,359.226 607.5,359.5C 607.5,325.5 607.5,291.5 607.5,257.5C 622.028,257.68 636.361,257.013 650.5,255.5 Z"/></g>
<g><path style="opacity:1" fill="#037ac0" d="M 124.5,257.5 C 148.912,272.041 174.246,285.041 200.5,296.5C 173.343,340.813 153.343,388.147 140.5,438.5C 107.759,432.768 75.4258,425.435 43.5,416.5C 62.9049,359.353 89.9049,306.353 124.5,257.5 Z"/></g>
<g><path style="opacity:1" fill="#027ac0" d="M 1072.5,257.5 C 1079.13,265.327 1085.3,273.66 1091,282.5C 1118.09,324.677 1139.25,369.677 1154.5,417.5C 1122.1,425.113 1089.43,431.447 1056.5,436.5C 1043.64,387.262 1023.98,340.929 997.5,297.5C 1013.07,289.715 1028.74,281.882 1044.5,274C 1054.06,268.726 1063.39,263.226 1072.5,257.5 Z"/></g>
<g><path style="opacity:1" fill="#037ac0" d="M 215.5,303.5 C 243.246,313.524 270.912,323.524 298.5,333.5C 279.463,372.946 264.796,413.946 254.5,456.5C 222.396,452.461 190.396,447.628 158.5,442C 157.484,441.481 156.818,440.647 156.5,439.5C 169.974,391.389 189.64,346.056 215.5,303.5 Z"/></g>
<g><path style="opacity:1" fill="#037ac0" d="M 979.5,303.5 C 980.675,303.281 981.675,303.614 982.5,304.5C 1008.42,347 1027.75,392.334 1040.5,440.5C 1010.5,445 980.496,449.5 950.5,454C 947.773,454.818 945.106,454.652 942.5,453.5C 937.581,433.576 931.748,413.909 925,394.5C 917.034,373.242 908.534,352.242 899.5,331.5C 926.879,323.931 953.546,314.597 979.5,303.5 Z"/></g>
<g><path style="opacity:1" fill="#047ac0" d="M 314.5,337.5 C 340.995,344.29 367.662,350.457 394.5,356C 395.428,356.388 396.095,357.055 396.5,358C 384.744,393.188 375.244,429.022 368,465.5C 365.617,466.766 362.95,467.432 360,467.5C 330.405,465.324 300.905,462.324 271.5,458.5C 281.272,416.516 295.605,376.183 314.5,337.5 Z"/></g>
<g><path style="opacity:1" fill="#047ac0" d="M 879.5,337.5 C 880.978,337.238 882.311,337.571 883.5,338.5C 902.001,376.67 916.334,416.337 926.5,457.5C 894.892,461.076 863.225,464.076 831.5,466.5C 824.565,429.094 815.899,392.094 805.5,355.5C 830.573,350.731 855.24,344.731 879.5,337.5 Z"/></g>
<g><path style="opacity:1" fill="#077ac0" d="M 777.5,470.5 C 757.879,456.519 736.879,444.852 714.5,435.5C 711.887,413.77 708.887,392.103 705.5,370.5C 733.219,367.212 760.886,363.712 788.5,360C 800.231,395.426 808.898,431.592 814.5,468.5C 802.181,469.404 789.847,470.07 777.5,470.5 Z"/></g>
<g><path style="opacity:1" fill="#057ac0" d="M 484.5,435.5 C 461.329,445.056 439.662,457.056 419.5,471.5C 407.816,471.099 396.149,470.432 384.5,469.5C 391.279,432.215 400.946,395.715 413.5,360C 439.941,364.613 466.608,368.113 493.5,370.5C 489.599,392.04 486.599,413.707 484.5,435.5 Z"/></g>
<g><path style="opacity:1" fill="#087abf" d="M 590.5,415.5 C 560.195,416.162 530.528,420.829 501.5,429.5C 503.908,410.462 506.574,391.462 509.5,372.5C 536.442,374.91 563.442,375.91 590.5,375.5C 590.5,388.833 590.5,402.167 590.5,415.5 Z"/></g>
<g><path style="opacity:1" fill="#0e7abf" d="M 696.5,429.5 C 667.442,421.046 637.775,416.379 607.5,415.5C 607.5,402.167 607.5,388.833 607.5,375.5C 634.864,375.313 662.197,374.313 689.5,372.5C 692.601,391.637 694.934,410.637 696.5,429.5 Z"/></g>
<g><path style="opacity:1" fill="#e85224" d="M 590.5,415.5 C 596.167,415.5 601.833,415.5 607.5,415.5C 637.775,416.379 667.442,421.046 696.5,429.5C 702.225,432.014 708.225,434.014 714.5,435.5C 736.879,444.852 757.879,456.519 777.5,470.5C 783.772,475.433 789.772,480.767 795.5,486.5C 805.121,495.793 813.788,505.793 821.5,516.5C 829.515,529.53 836.182,543.197 841.5,557.5C 843.923,567.705 845.59,578.039 846.5,588.5C 846.216,590.415 846.549,592.081 847.5,593.5C 847.5,598.833 847.5,604.167 847.5,609.5C 845.516,619.382 843.516,629.382 841.5,639.5C 836.806,653.557 830.472,666.891 822.5,679.5C 812.629,693.709 801.296,706.709 788.5,718.5C 781.946,723.27 775.613,728.27 769.5,733.5C 752.554,744.141 734.887,753.474 716.5,761.5C 710.722,763.224 705.055,765.224 699.5,767.5C 669.526,776.607 638.859,781.607 607.5,782.5C 601.833,782.5 596.167,782.5 590.5,782.5C 559.713,782.035 529.713,777.035 500.5,767.5C 494.763,766.032 489.097,764.365 483.5,762.5C 464.643,754.405 446.643,744.739 429.5,733.5C 422.839,728.507 416.172,723.507 409.5,718.5C 397.339,707.347 386.672,695.014 377.5,681.5C 368.625,668.084 361.625,653.751 356.5,638.5C 354.576,629.214 352.91,619.881 351.5,610.5C 351.5,610.167 351.5,609.833 351.5,609.5C 351.5,604.167 351.5,598.833 351.5,593.5C 351.5,592.167 351.5,590.833 351.5,589.5C 352.412,579.028 354.079,568.695 356.5,558.5C 362.165,543.498 369.165,529.165 377.5,515.5C 385.096,505.897 393.096,496.564 401.5,487.5C 407.541,482.157 413.541,476.824 419.5,471.5C 439.662,457.056 461.329,445.056 484.5,435.5C 490.172,433.498 495.838,431.498 501.5,429.5C 530.528,420.829 560.195,416.162 590.5,415.5 Z"/></g>
<g><path style="opacity:1" fill="#037ac0" d="M 119.5,579.5 C 118.515,583.634 118.182,587.968 118.5,592.5C 84.1667,592.5 49.8333,592.5 15.5,592.5C 15.5,585.5 15.5,578.5 15.5,571.5C 17.1588,524.88 24.6588,479.214 38,434.5C 38.7247,433.941 39.5581,433.608 40.5,433.5C 71.6743,441.268 103.008,448.268 134.5,454.5C 134.833,455.167 135.167,455.833 135.5,456.5C 126.022,496.937 120.689,537.937 119.5,579.5 Z"/></g>
<g><path style="opacity:1" fill="#037ac0" d="M 1183.5,592.5 C 1148.5,592.5 1113.5,592.5 1078.5,592.5C 1078.82,586.974 1078.49,581.64 1077.5,576.5C 1076.11,534.635 1070.78,493.302 1061.5,452.5C 1094.64,446.806 1127.64,440.473 1160.5,433.5C 1175.54,485.395 1183.21,538.395 1183.5,592.5 Z"/></g>
<g><path style="opacity:1" fill="#fefdfc" d="M 762.5,535.5 C 766.97,536.486 771.637,536.819 776.5,536.5C 776.768,534.901 776.434,533.568 775.5,532.5C 775.483,506.651 762.817,491.151 737.5,486C 639.833,485.667 542.167,485.333 444.5,485C 482.309,459.839 523.975,445.172 569.5,441C 630.971,435.227 688.638,447.227 742.5,477C 773.646,495.478 797.146,520.978 813,553.5C 829.76,600.03 822.427,642.364 791,680.5C 773.239,700.262 752.572,716.262 729,728.5C 738.118,679.077 747.951,629.744 758.5,580.5C 738.167,579.833 717.833,579.167 697.5,578.5C 696.089,587.451 695.089,596.451 694.5,605.5C 705.167,605.5 715.833,605.5 726.5,605.5C 723.569,620.374 719.736,635.041 715,649.5C 708.992,665.372 698.492,677.205 683.5,685C 664.142,689.563 652.308,682.063 648,662.5C 647.103,658.045 646.603,653.545 646.5,649C 650.412,606.268 662.579,566.102 683,528.5C 693.726,512.054 708.893,504.554 728.5,506C 743.389,510.367 750.722,520.2 750.5,535.5C 754.5,535.5 758.5,535.5 762.5,535.5 Z"/></g>
<g><path style="opacity:1" fill="#057ac0" d="M 1038.5,456.5 C 1040.83,456.5 1043.17,456.5 1045.5,456.5C 1055.89,501.558 1061.22,547.225 1061.5,593.5C 1027.83,593.5 994.167,593.5 960.5,593.5C 959.69,552.02 955.023,511.02 946.5,470.5C 977.443,466.843 1008.11,462.176 1038.5,456.5 Z"/></g>
<g><path style="opacity:1" fill="#037ac0" d="M 237.5,582.5 C 236.521,585.625 236.187,588.958 236.5,592.5C 203.167,592.5 169.833,592.5 136.5,592.5C 136.5,586.167 136.5,579.833 136.5,573.5C 137.262,534.168 142.595,495.501 152.5,457.5C 184.688,463.399 217.021,468.399 249.5,472.5C 249.833,473.167 250.167,473.833 250.5,474.5C 242.743,510.071 238.409,546.071 237.5,582.5 Z"/></g>
<g><path style="opacity:1" fill="#037ac0" d="M 943.5,592.5 C 911.5,592.5 879.5,592.5 847.5,592.5C 847.768,590.901 847.434,589.568 846.5,588.5C 845.59,578.039 843.923,567.705 841.5,557.5C 840.067,532.403 837.734,507.403 834.5,482.5C 866.578,480.284 898.578,477.284 930.5,473.5C 939.149,512.676 943.482,552.342 943.5,592.5 Z"/></g>
<g><path style="opacity:1" fill="#027ac0" d="M 356.5,558.5 C 354.079,568.695 352.412,579.028 351.5,589.5C 350.596,590.209 350.263,591.209 350.5,592.5C 318.5,592.5 286.5,592.5 254.5,592.5C 254.5,585.833 254.5,579.167 254.5,572.5C 256.13,539.536 260.13,506.869 266.5,474.5C 299.098,478.373 331.765,481.706 364.5,484.5C 360.742,509.05 358.075,533.716 356.5,558.5 Z"/></g>
<g><path style="opacity:1" fill="#237cbd" d="M 821.5,516.5 C 813.788,505.793 805.121,495.793 795.5,486.5C 802.181,485.986 808.848,485.319 815.5,484.5C 816.167,484.833 816.833,485.167 817.5,485.5C 819.548,495.733 820.881,506.066 821.5,516.5 Z"/></g>
<g><path style="opacity:1" fill="#207dbe" d="M 401.5,487.5 C 393.096,496.564 385.096,505.897 377.5,515.5C 377.808,506.014 379.141,496.68 381.5,487.5C 388.322,486.182 394.989,486.182 401.5,487.5 Z"/></g>
<g><path style="opacity:1" fill="#fefdfd" d="M 498.5,508.5 C 555.669,508.168 612.669,508.501 669.5,509.5C 658.2,521.399 649.366,535.066 643,550.5C 628.526,584.723 621.526,620.39 622,657.5C 624.235,677.74 634.402,692.574 652.5,702C 666.934,704.539 680.6,702.205 693.5,695C 698.253,692.542 702.753,689.708 707,686.5C 707.333,686.833 707.667,687.167 708,687.5C 708.431,694.254 707.765,700.92 706,707.5C 702.67,719.158 699.503,730.825 696.5,742.5C 616.912,768.185 539.579,762.685 464.5,726C 434.248,710.083 410.081,687.583 392,658.5C 364.357,600.715 373.524,549.548 419.5,505C 436.83,504.5 454.163,504.333 471.5,504.5C 456.294,565.862 440.961,627.195 425.5,688.5C 434.833,688.5 444.167,688.5 453.5,688.5C 460.747,660.42 468.414,632.42 476.5,604.5C 497.156,603.5 517.823,603.167 538.5,603.5C 540.245,595.111 542.245,586.778 544.5,578.5C 523.844,577.5 503.177,577.167 482.5,577.5C 487.051,554.298 492.384,531.298 498.5,508.5 Z"/></g>
<g><path style="opacity:1" fill="#f2977b" d="M 498.5,508.5 C 555.999,507.335 613.665,507.168 671.5,508C 670.956,508.717 670.289,509.217 669.5,509.5C 612.669,508.501 555.669,508.168 498.5,508.5 Z"/></g>
<g><path style="opacity:1" fill="#ef7f5e" d="M 597.5,527.5 C 588.083,527.195 578.75,527.528 569.5,528.5C 573.783,527.173 578.449,526.507 583.5,526.5C 588.346,526.501 593.012,526.834 597.5,527.5 Z"/></g>
<g><path style="opacity:1" fill="#e95224" d="M 597.5,527.5 C 585.765,583.415 573.765,639.248 561.5,695C 551.833,695.667 542.167,695.667 532.5,695C 544.777,639.515 557.11,584.015 569.5,528.5C 578.75,527.528 588.083,527.195 597.5,527.5 Z"/></g>
<g><path style="opacity:1" fill="#f3997d" d="M 775.5,532.5 C 776.434,533.568 776.768,534.901 776.5,536.5C 771.637,536.819 766.97,536.486 762.5,535.5C 766.833,535.5 771.167,535.5 775.5,535.5C 775.5,534.5 775.5,533.5 775.5,532.5 Z"/></g>
<g><path style="opacity:1" fill="#3793cb" d="M 15.5,571.5 C 15.5,578.5 15.5,585.5 15.5,592.5C 49.8333,592.5 84.1667,592.5 118.5,592.5C 118.182,587.968 118.515,583.634 119.5,579.5C 119.5,584.167 119.5,588.833 119.5,593.5C 84.5,593.5 49.5,593.5 14.5,593.5C 14.175,585.981 14.5084,578.648 15.5,571.5 Z"/></g>
<g><path style="opacity:1" fill="#3492cb" d="M 136.5,573.5 C 136.5,579.833 136.5,586.167 136.5,592.5C 169.833,592.5 203.167,592.5 236.5,592.5C 236.187,588.958 236.521,585.625 237.5,582.5C 237.5,586.167 237.5,589.833 237.5,593.5C 203.5,593.5 169.5,593.5 135.5,593.5C 135.176,586.646 135.509,579.979 136.5,573.5 Z"/></g>
<g><path style="opacity:1" fill="#3994cb" d="M 254.5,572.5 C 254.5,579.167 254.5,585.833 254.5,592.5C 286.5,592.5 318.5,592.5 350.5,592.5C 350.263,591.209 350.596,590.209 351.5,589.5C 351.5,590.833 351.5,592.167 351.5,593.5C 318.833,593.5 286.167,593.5 253.5,593.5C 253.175,586.313 253.509,579.313 254.5,572.5 Z"/></g>
<g><path style="opacity:1" fill="#479acd" d="M 846.5,588.5 C 847.434,589.568 847.768,590.901 847.5,592.5C 879.5,592.5 911.5,592.5 943.5,592.5C 911.671,593.498 879.671,593.832 847.5,593.5C 846.549,592.081 846.216,590.415 846.5,588.5 Z"/></g>
<g><path style="opacity:1" fill="#50a2d3" d="M 1077.5,576.5 C 1078.49,581.64 1078.82,586.974 1078.5,592.5C 1113.5,592.5 1148.5,592.5 1183.5,592.5C 1148.34,593.498 1113,593.832 1077.5,593.5C 1077.5,587.833 1077.5,582.167 1077.5,576.5 Z"/></g>
<g><path style="opacity:1" fill="#77b8dd" d="M 119.5,610.5 C 84.8333,610.5 50.1667,610.5 15.5,610.5C 15.5,613.167 15.5,615.833 15.5,618.5C 14.5233,615.713 14.19,612.713 14.5,609.5C 49.6706,609.168 84.6706,609.502 119.5,610.5 Z"/></g>
<g><path style="opacity:1" fill="#72b5db" d="M 237.5,620.5 C 236.521,617.375 236.187,614.042 236.5,610.5C 203.167,610.5 169.833,610.5 136.5,610.5C 136.5,614.5 136.5,618.5 136.5,622.5C 135.515,618.366 135.182,614.032 135.5,609.5C 169.5,609.5 203.5,609.5 237.5,609.5C 237.5,613.167 237.5,616.833 237.5,620.5 Z"/></g>
<g><path style="opacity:1" fill="#6ab1d9" d="M 351.5,609.5 C 351.5,609.833 351.5,610.167 351.5,610.5C 319.167,610.5 286.833,610.5 254.5,610.5C 254.5,616.5 254.5,622.5 254.5,628.5C 253.51,622.355 253.177,616.022 253.5,609.5C 286.167,609.5 318.833,609.5 351.5,609.5 Z"/></g>
<g><path style="opacity:1" fill="#4ca1d2" d="M 1183.5,610.5 C 1148.5,610.5 1113.5,610.5 1078.5,610.5C 1078.82,615.363 1078.49,620.03 1077.5,624.5C 1077.5,619.5 1077.5,614.5 1077.5,609.5C 1113,609.168 1148.34,609.502 1183.5,610.5 Z"/></g>
<g><path style="opacity:1" fill="#027ac0" d="M 119.5,610.5 C 119.624,659.907 125.624,708.574 137.5,756.5C 132.179,757.329 126.846,758.162 121.5,759C 94.9917,765.044 68.6584,771.544 42.5,778.5C 26.159,726.455 17.159,673.122 15.5,618.5C 15.5,615.833 15.5,613.167 15.5,610.5C 50.1667,610.5 84.8333,610.5 119.5,610.5 Z"/></g>
<g><path style="opacity:1" fill="#017ac0" d="M 237.5,620.5 C 238.627,659.152 243.294,697.318 251.5,735C 218.678,740.081 186.012,745.914 153.5,752.5C 143.245,709.794 137.578,666.461 136.5,622.5C 136.5,618.5 136.5,614.5 136.5,610.5C 169.833,610.5 203.167,610.5 236.5,610.5C 236.187,614.042 236.521,617.375 237.5,620.5 Z"/></g>
<g><path style="opacity:1" fill="#037ac0" d="M 351.5,610.5 C 352.91,619.881 354.576,629.214 356.5,638.5C 357.79,666.315 360.457,693.982 364.5,721.5C 332.193,725.413 299.86,729.08 267.5,732.5C 260.051,698.233 255.718,663.566 254.5,628.5C 254.5,622.5 254.5,616.5 254.5,610.5C 286.833,610.5 319.167,610.5 351.5,610.5 Z"/></g>
<g><path style="opacity:1" fill="#067ac0" d="M 847.5,609.5 C 879.5,609.5 911.5,609.5 943.5,609.5C 943.193,651.338 938.526,692.671 929.5,733.5C 897.619,729.873 865.786,726.206 834,722.5C 837.665,694.991 840.165,667.325 841.5,639.5C 843.516,629.382 845.516,619.382 847.5,609.5 Z"/></g>
<g><path style="opacity:1" fill="#057ac0" d="M 960.5,609.5 C 994.167,609.5 1027.83,609.5 1061.5,609.5C 1060.95,658.214 1054.95,706.214 1043.5,753.5C 1010.88,747.435 978.216,741.602 945.5,736C 954.679,694.382 959.679,652.215 960.5,609.5 Z"/></g>
<g><path style="opacity:1" fill="#027ac0" d="M 1183.5,610.5 C 1182.15,668.219 1172.82,724.552 1155.5,779.5C 1123.52,771.835 1091.52,764.168 1059.5,756.5C 1070.25,713.163 1076.25,669.163 1077.5,624.5C 1078.49,620.03 1078.82,615.363 1078.5,610.5C 1113.5,610.5 1148.5,610.5 1183.5,610.5 Z"/></g>
<g><path style="opacity:1" fill="#e95528" d="M 478.5,659.5 C 486.036,659.529 490.869,663.195 493,670.5C 494.666,685.177 488.5,691.01 474.5,688C 468.661,682.125 467.161,675.292 470,667.5C 472.074,663.923 474.907,661.256 478.5,659.5 Z"/></g>
<g><path style="opacity:1" fill="#e95427" d="M 589.5,661.5 C 597.382,660.688 602.548,664.021 605,671.5C 606.799,680.127 603.965,686.627 596.5,691C 588.004,691.855 582.837,688.022 581,679.5C 579.811,671.546 582.645,665.546 589.5,661.5 Z"/></g>
<g><path style="opacity:1" fill="#e95325" d="M 753.5,661.5 C 761.147,660.319 766.313,663.319 769,670.5C 770.895,678.136 769.061,684.636 763.5,690C 754.347,693.006 748.513,689.839 746,680.5C 744.098,672.319 746.598,665.986 753.5,661.5 Z"/></g>
<g><path style="opacity:1" fill="#1c7bbe" d="M 822.5,679.5 C 820.587,693.136 818.92,706.803 817.5,720.5C 807.779,720.44 798.112,719.773 788.5,718.5C 801.296,706.709 812.629,693.709 822.5,679.5 Z"/></g>
<g><path style="opacity:1" fill="#157abd" d="M 377.5,681.5 C 386.672,695.014 397.339,707.347 409.5,718.5C 400.159,718.667 390.826,719 381.5,719.5C 379.505,707.737 377.839,695.904 376.5,684C 376.528,682.93 376.861,682.097 377.5,681.5 Z"/></g>
<g><path style="opacity:1" fill="#057ac0" d="M 429.5,733.5 C 446.643,744.739 464.643,754.405 483.5,762.5C 486.314,786.236 489.647,809.902 493.5,833.5C 466.859,835.747 440.359,839.081 414,843.5C 413.5,843.167 413,842.833 412.5,842.5C 400.676,807.87 391.676,772.537 385.5,736.5C 400.128,735.104 414.795,734.104 429.5,733.5 Z"/></g>
<g><path style="opacity:1" fill="#067ac0" d="M 769.5,733.5 C 783.457,734.843 797.457,736.01 811.5,737C 812.624,737.249 813.624,737.749 814.5,738.5C 807.862,774.716 799.196,810.383 788.5,845.5C 761.663,840.638 734.663,836.972 707.5,834.5C 710.7,810.163 713.7,785.83 716.5,761.5C 734.887,753.474 752.554,744.141 769.5,733.5 Z"/></g>
<g><path style="opacity:1" fill="#047ac0" d="M 356.5,738.5 C 360.5,738.5 364.5,738.5 368.5,738.5C 375.131,773.688 383.964,808.355 395,842.5C 395.667,843.833 395.667,845.167 395,846.5C 367.382,852.447 339.882,858.78 312.5,865.5C 295.759,828.111 282.092,789.611 271.5,750C 299.811,745.55 328.144,741.717 356.5,738.5 Z"/></g>
<g><path style="opacity:1" fill="#057ac0" d="M 830.5,739.5 C 861.313,741.72 891.979,745.22 922.5,750C 923.516,750.519 924.182,751.353 924.5,752.5C 913.999,791.673 900.332,829.673 883.5,866.5C 859.25,860.79 834.917,855.29 810.5,850C 808.369,849.457 806.369,848.624 804.5,847.5C 815.683,812.102 824.35,776.102 830.5,739.5 Z"/></g>
<g><path style="opacity:1" fill="#037ac0" d="M 245.5,752.5 C 249.351,751.971 252.851,752.638 256,754.5C 265.967,793.93 279.467,832.097 296.5,869C 296.355,869.772 296.022,870.439 295.5,871C 268.418,878.961 241.918,888.461 216,899.5C 190.902,859.292 171.736,816.292 158.5,770.5C 158.608,769.558 158.941,768.725 159.5,768C 188.243,762.494 216.909,757.327 245.5,752.5 Z"/></g>
<g><path style="opacity:1" fill="#037ac0" d="M 941.5,753.5 C 973.31,757.802 1004.98,762.968 1036.5,769C 1037.52,769.519 1038.18,770.353 1038.5,771.5C 1025.13,816.112 1006.63,858.445 983,898.5C 982.261,899.574 981.261,900.241 980,900.5C 954.252,890.14 928.086,880.973 901.5,873C 900.484,872.481 899.818,871.647 899.5,870.5C 917.072,832.785 931.072,793.785 941.5,753.5 Z"/></g>
<g><path style="opacity:1" fill="#067abf" d="M 500.5,767.5 C 529.713,777.035 559.713,782.035 590.5,782.5C 590.5,797.833 590.5,813.167 590.5,828.5C 565.453,828.353 540.453,829.353 515.5,831.5C 513.833,831.167 512.167,830.833 510.5,830.5C 506.794,809.56 503.461,788.56 500.5,767.5 Z"/></g>
<g><path style="opacity:1" fill="#0b7abf" d="M 699.5,767.5 C 696.395,789.131 693.395,810.798 690.5,832.5C 662.887,830.224 635.22,828.89 607.5,828.5C 607.5,813.167 607.5,797.833 607.5,782.5C 638.859,781.607 669.526,776.607 699.5,767.5 Z"/></g>
<g><path style="opacity:1" fill="#037ac0" d="M 135.5,772.5 C 137.833,772.5 140.167,772.5 142.5,772.5C 155.484,819.467 174.484,863.8 199.5,905.5C 187.055,912.223 174.389,918.723 161.5,925C 150.37,931.301 139.37,937.801 128.5,944.5C 94.3402,899.2 67.6735,849.533 48.5,795.5C 58.6869,792.024 69.0203,788.858 79.5,786C 98.3,781.465 116.967,776.965 135.5,772.5 Z"/></g>
<g><path style="opacity:1" fill="#037ac0" d="M 1054.5,773.5 C 1086.5,779.444 1118.17,786.777 1149.5,795.5C 1130.79,849.61 1104.29,899.276 1070,944.5C 1046.15,931.326 1021.98,918.826 997.5,907C 1022.12,864.924 1041.12,820.424 1054.5,773.5 Z"/></g>
<g><path style="opacity:1" fill="#037ac0" d="M 546.5,845.5 C 561.167,845.5 575.833,845.5 590.5,845.5C 590.5,879.167 590.5,912.833 590.5,946.5C 571.473,946.57 552.473,947.236 533.5,948.5C 525.654,915.093 518.987,881.426 513.5,847.5C 524.709,847.778 535.709,847.111 546.5,845.5 Z"/></g>
<g><path style="opacity:1" fill="#027ac0" d="M 607.5,845.5 C 634.248,845.338 660.915,846.672 687.5,849.5C 681.604,882.649 674.937,915.649 667.5,948.5C 665.667,948.833 663.833,949.167 662,949.5C 643.877,947.642 625.71,946.642 607.5,946.5C 607.5,912.833 607.5,879.167 607.5,845.5 Z"/></g>
<g><path style="opacity:1" fill="#057ac0" d="M 489.5,849.5 C 492.394,849.042 494.894,849.709 497,851.5C 503.006,885.029 509.839,918.362 517.5,951.5C 498.324,953.697 479.324,956.531 460.5,960C 444.262,927.788 430.262,894.621 418.5,860.5C 420.882,858.929 423.549,858.096 426.5,858C 447.703,855.559 468.703,852.726 489.5,849.5 Z"/></g>
<g><path style="opacity:1" fill="#057ac0" d="M 703.5,850.5 C 729.949,852.978 756.283,856.311 782.5,860.5C 771.401,894.703 758.067,928.036 742.5,960.5C 741.333,960.833 740.167,961.167 739,961.5C 721.011,957.293 702.844,954.293 684.5,952.5C 691.573,918.661 697.907,884.661 703.5,850.5 Z"/></g>
<g><path style="opacity:1" fill="#047ac0" d="M 397.5,862.5 C 399.144,862.286 400.644,862.62 402,863.5C 413.901,897.635 427.734,930.968 443.5,963.5C 423.848,969.106 404.348,975.439 385,982.5C 362.995,954.778 343.661,925.112 327,893.5C 324.597,889.365 322.763,885.032 321.5,880.5C 346.765,873.85 372.098,867.85 397.5,862.5 Z"/></g>
<g><path style="opacity:1" fill="#057ac0" d="M 798.5,864.5 C 824.03,869.345 849.364,875.011 874.5,881.5C 857.802,915.233 838.302,947.233 816,977.5C 814.578,979.744 812.744,981.41 810.5,982.5C 793.117,976.817 775.784,971.15 758.5,965.5C 774.194,932.75 787.527,899.083 798.5,864.5 Z"/></g>
<g><path style="opacity:1" fill="#047ac0" d="M 302.5,885.5 C 303.496,885.414 304.329,885.748 305,886.5C 323.073,922.337 343.907,956.337 367.5,988.5C 348.131,997.018 329.131,1006.35 310.5,1016.5C 277.729,985.749 249.063,951.749 224.5,914.5C 234.182,909.659 244.182,905.492 254.5,902C 270.571,896.366 286.571,890.866 302.5,885.5 Z"/></g>
<g><path style="opacity:1" fill="#037ac0" d="M 890.5,887.5 C 917.988,895.107 944.988,904.107 971.5,914.5C 969.216,919.727 966.383,924.727 963,929.5C 940.951,961.226 915.617,990.226 887,1016.5C 867.587,1006.71 848.087,997.374 828.5,988.5C 851.948,956.616 872.615,922.949 890.5,887.5 Z"/></g>
<g><path style="opacity:1" fill="#037ac0" d="M 205.5,921.5 C 207.722,921.178 209.556,921.845 211,923.5C 235.056,960.243 262.889,994.076 294.5,1025C 276.789,1036.52 259.789,1049.02 243.5,1062.5C 203.872,1032.54 168.872,997.872 138.5,958.5C 147.962,951.595 157.962,945.429 168.5,940C 180.925,933.787 193.259,927.621 205.5,921.5 Z"/></g>
<g><path style="opacity:1" fill="#037ac0" d="M 987.5,922.5 C 1012.62,932.392 1036.62,944.392 1059.5,958.5C 1029.17,997.5 994.5,1032.17 955.5,1062.5C 938.662,1049 920.996,1036.66 902.5,1025.5C 934.901,994.267 963.234,959.934 987.5,922.5 Z"/></g>
<g><path style="opacity:1" fill="#047ac0" d="M 572.5,963.5 C 578.5,963.5 584.5,963.5 590.5,963.5C 590.5,997.167 590.5,1030.83 590.5,1064.5C 581.833,1064.5 573.167,1064.5 564.5,1064.5C 555.331,1032.33 546.664,999.994 538.5,967.5C 538.818,966.353 539.484,965.519 540.5,965C 551.146,964.02 561.813,963.52 572.5,963.5 Z"/></g>
<g><path style="opacity:1" fill="#c0deef" d="M 572.5,963.5 C 578.645,962.51 584.978,962.177 591.5,962.5C 591.832,996.671 591.498,1030.67 590.5,1064.5C 590.5,1030.83 590.5,997.167 590.5,963.5C 584.5,963.5 578.5,963.5 572.5,963.5 Z"/></g>
<g><path style="opacity:1" fill="#c9e3f1" d="M 620.5,963.5 C 616.167,963.5 611.833,963.5 607.5,963.5C 607.5,997.167 607.5,1030.83 607.5,1064.5C 606.502,1030.67 606.168,996.671 606.5,962.5C 611.363,962.181 616.03,962.514 620.5,963.5 Z"/></g>
<g><path style="opacity:1" fill="#047ac0" d="M 620.5,963.5 C 634.847,963.89 649.181,964.557 663.5,965.5C 655.254,998.82 645.92,1031.82 635.5,1064.5C 626.19,1065.17 616.857,1065.17 607.5,1064.5C 607.5,1030.83 607.5,997.167 607.5,963.5C 611.833,963.5 616.167,963.5 620.5,963.5 Z"/></g>
<g><path style="opacity:1" fill="#0a7bc0" d="M 513.5,967.5 C 516.711,967.012 519.544,967.679 522,969.5C 530.489,1002.3 538.989,1034.8 547.5,1067C 539.628,1067.48 531.795,1068.31 524,1069.5C 522.564,1069.44 521.231,1069.11 520,1068.5C 501.267,1038.37 484.101,1007.37 468.5,975.5C 483.595,972.708 498.595,970.041 513.5,967.5 Z"/></g>
<g><path style="opacity:1" fill="#087bc0" d="M 679.5,968.5 C 698.088,970.154 716.421,973.32 734.5,978C 717.889,1010.07 699.889,1041.23 680.5,1071.5C 679.833,1071.83 679.167,1072.17 678.5,1072.5C 669.885,1070.78 661.219,1069.44 652.5,1068.5C 662.319,1035.38 671.319,1002.05 679.5,968.5 Z"/></g>
<g><path style="opacity:1" fill="#067bc0" d="M 449.5,979.5 C 450.376,979.369 451.043,979.702 451.5,980.5C 467.44,1012.22 484.773,1043.06 503.5,1073C 503.167,1073.33 502.833,1073.67 502.5,1074C 492.048,1076.2 481.715,1078.53 471.5,1081C 444.49,1055 419.323,1027.5 396,998.5C 395.517,997.552 395.351,996.552 395.5,995.5C 413.535,989.929 431.535,984.596 449.5,979.5 Z"/></g>
<g><path style="opacity:1" fill="#057bc0" d="M 750.5,981.5 C 767.018,985.616 783.352,990.45 799.5,996C 800.451,996.718 800.617,997.551 800,998.5C 775.675,1028.5 749.509,1057 721.5,1084C 713.796,1082.32 706.13,1080.15 698.5,1077.5C 697.417,1076.64 697.251,1075.64 698,1074.5C 717.55,1044.74 735.05,1013.74 750.5,981.5 Z"/></g>
<g><path style="opacity:1" fill="#057ac0" d="M 377.5,1002.5 C 401.299,1031.98 426.633,1060.31 453.5,1087.5C 442.76,1091.97 432.094,1096.64 421.5,1101.5C 386.889,1080.39 354.389,1056.39 324,1029.5C 323.312,1028.67 323.479,1028 324.5,1027.5C 341.864,1018.32 359.531,1009.98 377.5,1002.5 Z"/></g>
<g><path style="opacity:1" fill="#047ac0" d="M 816.5,1003.5 C 836.619,1009.73 855.619,1018.39 873.5,1029.5C 841.613,1057.56 807.613,1082.73 771.5,1105C 770.5,1105.67 769.5,1105.67 768.5,1105C 758.591,1099.88 748.591,1095.04 738.5,1090.5C 766.717,1063.29 792.717,1034.29 816.5,1003.5 Z"/></g>
<g><path style="opacity:1" fill="#057ac0" d="M 306.5,1037.5 C 320.473,1048.17 334.139,1059.34 347.5,1071C 364.642,1084.07 382.309,1096.41 400.5,1108C 402.255,1108.72 403.089,1109.89 403,1111.5C 391.046,1118.23 379.879,1126.06 369.5,1135C 368.167,1135.67 366.833,1135.67 365.5,1135C 326.822,1118.42 290.822,1097.59 257.5,1072.5C 273.02,1059.58 289.353,1047.92 306.5,1037.5 Z"/></g>
<g><path style="opacity:1" fill="#047ac0" d="M 888.5,1037.5 C 907.143,1047.83 924.81,1059.66 941.5,1073C 904.455,1099.47 864.788,1121.64 822.5,1139.5C 811.436,1130.88 799.936,1122.88 788,1115.5C 787.312,1114.67 787.479,1114 788.5,1113.5C 824.432,1091.57 857.766,1066.23 888.5,1037.5 Z"/></g>
<g><path style="opacity:1" fill="#0c7cc1" d="M 590.5,1080.5 C 590.83,1101.01 590.497,1121.34 589.5,1141.5C 582.965,1121.23 576.631,1100.89 570.5,1080.5C 577.167,1080.5 583.833,1080.5 590.5,1080.5 Z"/></g>
<g><path style="opacity:1" fill="#c6e1f0" d="M 590.5,1080.5 C 591.663,1101.33 591.829,1122.33 591,1143.5C 590.283,1142.96 589.783,1142.29 589.5,1141.5C 590.497,1121.34 590.83,1101.01 590.5,1080.5 Z"/></g>
<g><path style="opacity:1" fill="#077bc0" d="M 607.5,1080.5 C 615.201,1080.74 622.868,1081.41 630.5,1082.5C 623.296,1103.61 615.796,1124.61 608,1145.5C 607.5,1123.84 607.333,1102.17 607.5,1080.5 Z"/></g>
<g><path style="opacity:1" fill="#177ec2" d="M 539.5,1083.5 C 544.43,1083.2 549.263,1083.53 554,1084.5C 560.355,1104.62 566.688,1124.62 573,1144.5C 558.307,1125.61 544.473,1106.11 531.5,1086C 534.166,1084.94 536.833,1084.11 539.5,1083.5 Z"/></g>
<g><path style="opacity:1" fill="#117dc1" d="M 646.5,1084.5 C 654.307,1084.77 661.974,1085.93 669.5,1088C 655.853,1108.12 641.353,1127.62 626,1146.5C 632.903,1125.96 639.737,1105.29 646.5,1084.5 Z"/></g>
<g><path style="opacity:1" fill="#0f7dc1" d="M 509.5,1088.5 C 511.722,1088.18 513.556,1088.84 515,1090.5C 527.887,1110.72 541.554,1130.39 556,1149.5C 556.667,1150.17 556.667,1150.83 556,1151.5C 531.963,1133.8 508.797,1114.97 486.5,1095C 494.283,1092.83 501.95,1090.66 509.5,1088.5 Z"/></g>
<g><path style="opacity:1" fill="#137dc1" d="M 686.5,1091.5 C 693.273,1093.12 699.94,1095.12 706.5,1097.5C 688.444,1113.89 669.777,1129.56 650.5,1144.5C 649.479,1144 649.312,1143.33 650,1142.5C 663.186,1126.16 675.353,1109.16 686.5,1091.5 Z"/></g>
<g><path style="opacity:1" fill="#0e7cc1" d="M 466.5,1100.5 C 480.941,1112.43 495.275,1124.6 509.5,1137C 519.215,1145.05 529.215,1152.72 539.5,1160C 504.696,1147.27 471.362,1131.27 439.5,1112C 448.362,1107.66 457.362,1103.83 466.5,1100.5 Z"/></g>
<g><path style="opacity:1" fill="#0f7cc1" d="M 724.5,1103.5 C 734.048,1106.94 743.382,1110.94 752.5,1115.5C 721.138,1134 688.471,1149.5 654.5,1162C 679.193,1144.14 702.526,1124.64 724.5,1103.5 Z"/></g>
<g><path style="opacity:1" fill="#0c7cc1" d="M 419.5,1120.5 C 458.858,1143.51 499.858,1163.34 542.5,1180C 488.356,1175.51 436.022,1163.18 385.5,1143C 396.467,1134.85 407.8,1127.35 419.5,1120.5 Z"/></g>
<g><path style="opacity:1" fill="#0a7bc0" d="M 769.5,1124.5 C 781.466,1130.63 792.799,1137.79 803.5,1146C 755.995,1164.97 706.661,1176.3 655.5,1180C 695.308,1164.93 733.308,1146.43 769.5,1124.5 Z"/></g>
</svg>
