<?xml version="1.0" standalone="no"?>
<!DOCTYPE svg PUBLIC "-//W3C//DTD SVG 20010904//EN"
 "http://www.w3.org/TR/2001/REC-SVG-20010904/DTD/svg10.dtd">
<svg version="1.0" xmlns="http://www.w3.org/2000/svg"
 width="1754.000000pt" height="1698.000000pt" viewBox="0 0 1754.000000 1698.000000"
 preserveAspectRatio="xMidYMid meet">

<g transform="translate(0.000000,1698.000000) scale(0.100000,-0.100000)"
fill="#000000" stroke="none">
<path d="M14290 11030 l0 -210 330 0 330 0 0 210 0 210 -330 0 -330 0 0 -210z"/>
<path d="M11620 10615 l0 -205 330 0 330 0 0 205 0 205 -330 0 -330 0 0 -205z"/>
<path d="M12287 10403 c-4 -3 -7 -192 -7 -420 l0 -413 670 0 670 0 0 420 0
420 -663 0 c-365 0 -667 -3 -670 -7z"/>
<path d="M1927 9566 c-116 -21 -211 -52 -317 -104 -79 -38 -110 -61 -180 -132
-134 -133 -190 -267 -190 -451 0 -311 225 -489 782 -618 97 -22 200 -50 228
-61 130 -51 190 -128 190 -243 0 -166 -132 -267 -369 -284 -247 -17 -402 102
-418 322 l-6 75 -235 0 -235 0 6 -97 c21 -322 180 -515 495 -601 91 -24 110
-26 327 -26 209 -1 239 2 325 23 383 95 569 289 604 627 14 132 -32 279 -116
370 -115 125 -263 189 -662 290 -120 30 -235 62 -255 70 -62 26 -111 66 -139
113 -23 40 -27 57 -27 126 0 93 21 141 81 195 134 117 412 114 526 -7 35 -36
75 -125 83 -185 l7 -48 225 0 224 0 -6 63 c-19 174 -67 282 -179 392 -91 91
-180 141 -314 177 -100 26 -341 34 -455 14z"/>
<path d="M3230 9345 l0 -195 235 0 235 0 0 195 0 195 -235 0 -235 0 0 -195z"/>
<path d="M6330 9410 l0 -130 360 0 360 0 0 -950 0 -950 150 0 150 0 0 950 0
950 360 0 360 0 0 130 0 130 -870 0 -870 0 0 -130z"/>
<path d="M10960 8460 l0 -1080 140 0 140 0 0 481 c0 519 2 545 55 649 60 118
236 212 368 195 168 -21 247 -95 282 -262 12 -54 15 -171 15 -565 l0 -498 146
0 146 0 -5 563 c-3 480 -6 571 -20 625 -49 183 -170 303 -345 341 -74 16 -245
14 -320 -4 -115 -27 -213 -88 -283 -178 l-39 -49 0 431 0 431 -140 0 -140 0 0
-1080z"/>
<path d="M4820 8904 c-92 -24 -162 -64 -228 -131 -35 -35 -66 -63 -68 -63 -2
0 -4 38 -4 85 l0 85 -220 0 -220 0 0 -750 0 -750 225 0 224 0 3 508 3 507 26
55 c55 117 135 174 244 173 109 -1 181 -49 229 -153 20 -44 21 -62 24 -567 l3
-523 224 0 224 0 3 493 c3 433 6 498 21 544 27 79 75 142 137 177 46 26 64 30
121 30 117 -2 185 -50 232 -166 21 -52 22 -66 25 -565 l3 -513 225 0 225 0 -3
568 c-4 607 -5 619 -57 721 -50 97 -223 213 -358 241 -85 18 -244 8 -316 -20
-84 -32 -173 -96 -236 -171 -30 -35 -57 -65 -60 -67 -4 -1 -15 14 -26 34 -43
80 -167 167 -298 209 -92 29 -236 33 -327 9z"/>
<path d="M8252 8900 c-183 -48 -318 -160 -401 -333 -78 -160 -108 -318 -98
-512 21 -386 181 -620 473 -695 97 -25 281 -27 392 -4 252 51 418 216 467 462
l7 32 -150 0 -150 0 -11 -50 c-25 -116 -97 -203 -195 -237 -79 -27 -236 -24
-300 5 -148 67 -223 197 -233 405 l-6 107 533 0 533 0 -6 143 c-12 255 -68
407 -197 531 -77 75 -152 115 -274 146 -106 27 -281 27 -384 0z m279 -194
c110 -25 190 -92 235 -193 24 -53 44 -150 44 -210 l0 -33 -381 0 -382 0 7 66
c28 272 230 429 477 370z"/>
<path d="M9894 8900 c-116 -30 -190 -73 -280 -164 -91 -90 -146 -188 -183
-326 -48 -172 -48 -411 -1 -593 62 -246 228 -414 455 -462 102 -21 265 -19
359 5 209 53 363 207 411 412 27 116 36 108 -125 108 l-139 0 -6 -37 c-11 -64
-34 -128 -64 -175 -54 -85 -174 -137 -286 -124 -170 20 -266 117 -317 322 -31
128 -32 399 0 526 50 204 149 308 307 324 178 19 303 -73 339 -248 l13 -63
142 -3 143 -3 -7 53 c-30 227 -178 394 -401 452 -87 22 -268 21 -360 -4z"/>
<path d="M3240 8130 l0 -750 225 0 225 0 0 750 0 750 -225 0 -225 0 0 -750z"/>
<path d="M13620 8530 l0 -210 335 0 335 0 -2 208 -3 207 -332 3 -333 2 0 -210z"/>
<path d="M7175 6831 c-22 -10 -50 -29 -62 -42 -89 -97 -92 -327 -5 -422 52
-58 177 -76 258 -36 49 23 58 33 79 82 l15 37 -39 0 c-31 0 -41 -4 -46 -21
-10 -29 -64 -59 -108 -59 -89 0 -138 60 -145 179 -5 93 9 150 49 196 53 60
162 57 197 -6 14 -24 23 -29 55 -29 35 0 38 2 32 23 -28 98 -172 148 -280 98z"/>
<path d="M11161 6825 c-28 -24 -31 -32 -31 -86 l0 -59 -41 0 c-36 0 -40 -2
-37 -22 2 -19 10 -24 41 -26 l37 -3 0 -155 0 -154 30 0 30 0 0 155 0 155 45 0
c41 0 45 2 45 25 0 23 -4 25 -45 25 l-45 0 0 39 c0 49 21 71 66 71 33 0 35 2
32 28 -3 25 -7 27 -49 30 -38 2 -52 -2 -78 -23z"/>
<path d="M7660 6580 l0 -260 35 0 35 0 0 260 0 260 -35 0 -35 0 0 -260z"/>
<path d="M11760 6580 l0 -260 165 0 165 0 0 30 0 30 -130 0 -130 0 0 85 0 85
120 0 120 0 0 30 0 30 -120 0 -120 0 0 85 0 85 130 0 130 0 0 30 0 30 -165 0
-165 0 0 -260z"/>
<path d="M13820 6580 l0 -260 35 0 35 0 0 260 0 260 -35 0 -35 0 0 -260z"/>
<path d="M14130 6580 l0 -260 35 0 35 0 0 260 0 260 -35 0 -35 0 0 -260z"/>
<path d="M9028 6768 c-24 -8 -28 -15 -28 -49 0 -38 -1 -39 -35 -39 -31 0 -35
-3 -35 -25 0 -22 4 -25 35 -25 l35 0 0 -144 c0 -138 1 -146 22 -160 14 -10 44
-16 75 -16 50 0 53 2 53 24 0 21 -5 25 -37 28 l-38 3 -3 133 -3 132 41 0 c36
0 40 2 40 25 0 23 -4 25 -40 25 l-40 0 0 50 c0 53 0 54 -42 38z"/>
<path d="M8565 6676 c-60 -26 -83 -77 -60 -132 16 -39 30 -47 115 -69 76 -20
103 -39 94 -69 -9 -32 -34 -46 -81 -46 -38 0 -46 4 -61 30 -13 24 -24 30 -49
30 -43 0 -44 -27 -4 -72 25 -29 35 -32 95 -36 130 -8 206 62 165 152 -13 28
-51 49 -124 67 -70 17 -85 26 -85 54 0 33 26 55 66 55 33 0 74 -28 74 -50 0
-5 16 -10 35 -10 40 0 46 19 19 59 -33 47 -134 66 -199 37z"/>
<path d="M9415 6678 c-67 -37 -98 -95 -98 -183 0 -68 17 -116 53 -150 25 -24
41 -30 93 -33 97 -6 150 23 172 96 6 20 3 22 -30 22 -25 0 -37 -5 -42 -17 -13
-36 -36 -53 -74 -53 -20 0 -45 3 -54 6 -22 9 -45 57 -45 94 l0 30 125 0 125 0
0 49 c0 59 -30 108 -80 133 -39 20 -115 23 -145 6z m116 -51 c21 -16 39 -51
39 -76 0 -20 -6 -21 -90 -21 -89 0 -90 0 -90 24 0 14 12 38 26 55 20 24 34 31
62 31 21 0 44 -6 53 -13z"/>
<path d="M9993 6679 c-18 -5 -39 -19 -48 -31 l-15 -22 0 27 c0 24 -4 27 -35
27 l-35 0 0 -180 0 -180 35 0 35 0 0 125 c0 120 1 127 25 150 18 18 35 25 65
25 39 0 40 1 40 35 0 38 -8 41 -67 24z"/>
<path d="M10621 6668 c-62 -32 -86 -81 -86 -173 0 -123 50 -177 168 -183 62
-3 77 -1 106 20 64 44 76 69 76 168 0 96 -10 121 -68 164 -43 32 -140 34 -196
4z m160 -56 c26 -23 33 -38 37 -80 10 -112 -26 -172 -105 -172 -35 0 -50 6
-72 28 -52 51 -49 175 4 228 35 35 95 33 136 -4z"/>
<path d="M12895 6679 c-68 -40 -98 -96 -98 -184 0 -68 17 -116 54 -151 28 -27
36 -29 105 -29 74 0 76 1 110 37 20 23 34 48 34 63 0 24 -3 26 -32 23 -24 -2
-34 -9 -36 -23 -11 -56 -91 -76 -131 -33 -42 44 -42 189 -1 233 41 43 109 30
128 -25 9 -25 16 -30 43 -30 30 0 31 1 25 33 -4 17 -20 45 -36 61 -24 25 -39
30 -87 33 -32 2 -67 -2 -78 -8z"/>
<path d="M13375 6678 c-67 -37 -98 -95 -98 -183 0 -68 17 -116 53 -150 25 -24
41 -30 93 -33 97 -6 150 23 172 96 6 20 3 22 -30 22 -25 0 -37 -5 -42 -17 -13
-36 -36 -53 -74 -53 -20 0 -45 3 -54 6 -22 9 -45 57 -45 94 l0 30 125 0 125 0
0 49 c0 59 -30 108 -80 133 -39 20 -115 23 -145 6z m116 -51 c21 -16 39 -51
39 -76 0 -20 -6 -21 -90 -21 -89 0 -90 0 -90 24 0 14 12 38 26 55 20 24 34 31
62 31 21 0 44 -6 53 -13z"/>
<path d="M14504 6676 c-64 -28 -99 -102 -92 -199 7 -114 57 -167 155 -167 70
0 118 21 143 62 28 46 26 58 -12 58 -26 -1 -37 -8 -53 -33 -17 -27 -27 -32
-65 -35 -38 -2 -50 1 -69 22 -12 13 -25 42 -28 65 l-6 41 132 0 c148 0 144 -3
120 85 -26 96 -130 142 -225 101z m131 -61 c16 -15 25 -36 25 -55 l0 -30 -91
0 -91 0 6 33 c14 72 102 102 151 52z"/>
<path d="M15080 6683 c-8 -3 -27 -17 -42 -31 l-28 -26 0 27 c0 23 -4 27 -30
27 l-30 0 0 -180 0 -180 35 0 35 0 0 131 0 131 29 29 c37 36 79 38 118 5 27
-23 27 -26 31 -160 l4 -136 29 0 29 0 0 148 c0 161 -5 179 -60 207 -28 15 -90
19 -120 8z"/>
<path d="M15550 6672 c-55 -30 -85 -92 -85 -177 1 -124 52 -185 154 -185 63 0
105 20 131 63 31 49 26 67 -15 67 -28 0 -35 -4 -35 -20 0 -44 -63 -74 -115
-54 -29 11 -48 65 -48 134 0 95 28 139 90 140 32 0 73 -37 73 -66 0 -9 12 -14
35 -14 39 0 41 6 21 55 -29 69 -130 97 -206 57z"/>
<path d="M16030 6672 c-55 -30 -85 -92 -85 -177 1 -126 51 -185 159 -185 64 0
104 17 135 56 33 42 28 64 -14 64 -24 0 -35 -5 -35 -15 0 -47 -90 -73 -137
-40 -23 16 -49 88 -38 105 4 6 59 10 126 10 l119 0 0 59 c0 45 -5 65 -22 86
-43 55 -142 72 -208 37z m134 -54 c15 -13 29 -38 32 -55 l7 -33 -90 0 c-49 0
-92 2 -95 5 -11 11 5 56 29 80 33 32 82 33 117 3z"/>
<path d="M7970 6545 c0 -194 22 -235 126 -235 41 0 59 5 82 25 36 30 42 31 42
5 0 -16 7 -20 30 -20 l30 0 0 180 0 180 -35 0 -35 0 0 -126 c0 -159 -16 -193
-90 -194 -70 0 -80 25 -80 189 l0 131 -35 0 -35 0 0 -135z"/>
<path d="M12287 6668 c5 -7 36 -46 67 -86 l58 -73 -71 -95 -71 -94 40 0 c38 0
42 3 91 70 l51 71 50 -71 c49 -69 50 -70 94 -70 l45 0 -19 28 c-11 15 -43 56
-70 91 l-50 65 61 75 c33 42 65 82 70 89 7 9 0 12 -31 12 -39 0 -43 -3 -87
-65 -26 -36 -51 -63 -56 -60 -4 3 -27 33 -50 65 -41 58 -43 60 -87 60 -34 0
-42 -3 -35 -12z"/>
</g>
</svg>
