<?xml version="1.0" standalone="no"?>
<!DOCTYPE svg PUBLIC "-//W3C//DTD SVG 20010904//EN"
 "http://www.w3.org/TR/2001/REC-SVG-20010904/DTD/svg10.dtd">
<svg version="1.0" xmlns="http://www.w3.org/2000/svg"
 width="600.000000pt" height="600.000000pt" viewBox="0 0 600.000000 600.000000"
 preserveAspectRatio="xMidYMid meet">

<g transform="translate(0.000000,600.000000) scale(0.100000,-0.100000)"
fill="#000000" stroke="none">
<path d="M300 4070 l0 -60 110 0 110 0 0 -275 0 -275 70 0 70 0 0 275 0 275
110 0 110 0 0 60 0 60 -290 0 -290 0 0 -60z"/>
<path d="M920 3795 l0 -335 65 0 65 0 0 143 c0 156 10 209 43 232 31 22 80 19
103 -6 17 -19 19 -41 22 -195 l3 -174 65 0 64 0 0 185 c0 203 -7 235 -55 273
-64 50 -152 48 -215 -4 l-30 -26 0 121 0 121 -65 0 -65 0 0 -335z"/>
<path d="M1558 3948 c-47 -12 -113 -69 -138 -119 -65 -127 -15 -299 104 -361
60 -32 174 -31 239 1 51 25 91 69 102 114 l7 27 -63 0 c-58 0 -67 -3 -92 -30
-33 -34 -88 -41 -136 -15 -25 12 -51 57 -51 86 0 5 78 10 173 11 l172 3 -3 50
c-9 178 -144 278 -314 233z m148 -120 c12 -13 25 -33 29 -45 6 -23 6 -23 -100
-23 -106 0 -106 0 -99 23 8 28 33 57 59 68 31 14 87 2 111 -23z"/>
<path d="M1426 3342 c-8 -13 -226 -644 -226 -654 0 -4 31 -8 69 -8 l69 0 27
80 27 80 127 0 127 0 25 -77 25 -78 72 -3 c40 -2 72 1 72 6 0 4 -51 154 -113
333 l-114 324 -91 3 c-50 1 -93 -1 -96 -6z m137 -243 c21 -64 37 -122 37 -128
0 -7 -29 -11 -85 -11 -47 0 -85 3 -85 7 0 21 85 262 91 255 3 -4 22 -59 42
-123z"/>
<path d="M1880 3015 l0 -335 65 0 65 0 0 335 0 335 -65 0 -65 0 0 -335z"/>
<path d="M3217 3343 c-4 -3 -7 -30 -7 -60 l0 -53 110 0 110 0 0 -275 0 -275
70 0 70 0 0 275 0 275 110 0 110 0 0 60 0 60 -283 0 c-156 0 -287 -3 -290 -7z"/>
<path d="M4550 3285 l0 -65 65 0 65 0 0 65 0 65 -65 0 -65 0 0 -65z"/>
<path d="M2215 3167 c-60 -20 -94 -46 -116 -88 -32 -64 -28 -69 51 -69 56 0
70 3 70 15 0 29 38 55 80 55 48 0 80 -27 80 -69 0 -28 -1 -28 -68 -34 -190
-18 -278 -92 -243 -208 31 -104 218 -140 300 -58 l30 29 3 -27 c3 -26 6 -28
58 -31 l55 -3 -3 153 c-1 84 -5 171 -7 193 -8 57 -37 101 -85 125 -52 26 -151
34 -205 17z m161 -322 c-14 -71 -110 -111 -156 -65 -27 27 -25 56 6 77 31 20
147 43 153 31 1 -5 0 -24 -3 -43z"/>
<path d="M4417 3170 c-21 -4 -51 -19 -67 -35 l-30 -29 0 27 c0 27 -1 27 -65
27 l-65 0 0 -240 0 -240 70 0 70 0 0 145 c0 113 4 153 16 176 17 34 66 59 114
59 30 0 30 1 30 54 0 61 -8 67 -73 56z"/>
<path d="M5402 3169 c-94 -17 -152 -95 -160 -214 -6 -90 15 -159 61 -202 47
-44 69 -53 135 -53 47 0 67 5 97 26 l37 25 -4 -62 c-6 -76 -27 -99 -94 -99
-43 0 -84 25 -84 50 0 6 -28 10 -65 10 -57 0 -65 -2 -65 -19 0 -26 40 -82 78
-108 68 -46 220 -40 287 11 65 50 70 71 73 364 l3 262 -60 0 c-59 0 -61 -1
-61 -26 l0 -26 -31 26 c-17 14 -43 29 -57 32 -15 3 -31 7 -37 8 -5 1 -29 -1
-53 -5z m128 -127 c73 -74 34 -242 -57 -242 -60 0 -93 49 -93 135 0 115 83
174 150 107z"/>
<path d="M2765 3155 c-16 -9 -38 -24 -47 -32 -17 -15 -18 -14 -18 10 0 26 -2
27 -60 27 l-60 0 0 -240 0 -240 65 0 65 0 0 150 c0 161 10 209 48 229 34 18
71 13 97 -14 25 -24 25 -27 25 -195 l0 -170 65 0 65 0 0 188 c0 205 -7 235
-63 276 -37 27 -140 33 -182 11z"/>
<path d="M4945 3155 c-16 -9 -38 -24 -47 -32 -17 -15 -18 -14 -18 10 0 26 -2
27 -60 27 l-60 0 0 -240 0 -240 65 0 65 0 0 150 c0 161 10 209 48 229 34 18
71 13 97 -14 25 -24 25 -27 25 -195 l0 -170 65 0 65 0 0 188 c0 205 -7 235
-63 276 -37 27 -140 33 -182 11z"/>
<path d="M3690 2968 c0 -174 2 -196 20 -225 50 -83 167 -102 252 -41 28 19 28
19 28 -1 0 -19 6 -21 65 -21 l65 0 0 240 0 240 -65 0 -65 0 0 -150 c0 -161
-10 -209 -48 -229 -37 -20 -79 -13 -101 15 -19 25 -21 40 -21 195 l0 169 -65
0 -65 0 0 -192z"/>
<path d="M4550 2920 l0 -240 65 0 65 0 0 240 0 240 -65 0 -65 0 0 -240z"/>
<path d="M430 2230 l0 -340 65 0 65 0 0 340 0 340 -65 0 -65 0 0 -340z"/>
<path d="M1880 2505 l0 -65 65 0 65 0 0 65 0 65 -65 0 -65 0 0 -65z"/>
<path d="M1610 2440 l0 -60 -35 0 -35 0 0 -50 0 -50 35 0 35 0 0 -140 c0 -97
4 -151 14 -174 26 -61 96 -96 165 -81 30 6 31 9 31 56 0 44 -2 49 -23 49 -42
0 -47 16 -47 157 l0 133 35 0 35 0 0 50 0 50 -35 0 -35 0 0 60 0 60 -70 0 -70
0 0 -60z"/>
<path d="M2130 2440 l0 -60 -35 0 -35 0 0 -50 0 -50 35 0 35 0 0 -134 c0 -73
3 -147 6 -165 13 -65 93 -111 168 -97 36 7 36 7 36 56 0 45 -2 50 -23 50 -42
0 -47 16 -47 157 l0 133 35 0 35 0 0 50 0 50 -35 0 -34 0 -3 58 -3 57 -67 3
-68 3 0 -61z"/>
<path d="M2960 2440 l0 -60 -35 0 -35 0 0 -50 0 -50 35 0 35 0 0 -152 c0 -134
3 -157 20 -185 10 -17 27 -36 37 -41 30 -16 89 -24 122 -17 30 6 31 9 31 56 0
45 -2 49 -24 49 -45 0 -56 32 -56 167 l0 123 40 0 40 0 0 50 0 50 -40 0 -40 0
0 60 0 60 -65 0 -65 0 0 -60z"/>
<path d="M1245 2391 c-186 -46 -189 -249 -4 -290 135 -30 177 -64 129 -103
-48 -39 -140 -11 -140 42 0 18 -7 20 -70 20 -80 0 -83 -5 -51 -76 31 -68 100
-104 201 -104 151 0 250 98 208 208 -18 48 -60 75 -160 102 -46 12 -91 26
-100 31 -24 13 -23 56 1 69 47 24 121 0 121 -41 0 -17 7 -19 70 -19 l70 0 -6
28 c-18 73 -60 114 -135 131 -50 12 -90 12 -134 2z"/>
<path d="M3385 2391 c-70 -18 -125 -63 -161 -131 -14 -26 -19 -57 -19 -120 0
-76 3 -91 30 -139 48 -86 130 -127 239 -119 98 8 178 62 201 136 6 21 4 22
-61 22 -58 0 -70 -3 -90 -25 -22 -24 -42 -30 -94 -25 -37 3 -58 17 -75 50 -31
60 -32 59 158 62 l172 3 -3 55 c-4 61 -32 132 -65 168 -49 53 -159 82 -232 63z
m121 -116 c12 -8 26 -28 32 -44 l11 -31 -105 0 c-116 0 -123 5 -79 59 36 42
91 49 141 16z"/>
<path d="M815 2379 c-11 -6 -30 -21 -42 -32 l-23 -20 0 26 c0 27 -1 27 -65 27
l-65 0 0 -245 0 -245 65 0 65 0 0 143 c0 151 10 207 41 238 24 24 70 24 100 0
23 -19 24 -25 29 -198 l5 -178 65 0 65 0 0 190 c0 209 -6 233 -68 278 -32 25
-140 34 -172 16z"/>
<path d="M1880 2135 l0 -245 65 0 65 0 0 245 0 245 -65 0 -65 0 0 -245z"/>
<path d="M2401 2188 c4 -177 6 -196 26 -228 52 -84 165 -101 255 -38 26 18 27
18 30 -4 3 -21 9 -23 66 -26 l62 -3 0 246 0 245 -65 0 -65 0 0 -137 c-1 -157
-10 -210 -41 -235 -29 -24 -84 -23 -109 2 -18 18 -20 33 -20 195 l0 175 -71 0
-71 0 3 -192z"/>
</g>
</svg>
